<?xml version="1.0" encoding="UTF-8" standalone="no"?>
<svg width="23px" height="17px" viewBox="0 0 23 17" version="1.1" xmlns="http://www.w3.org/2000/svg" xmlns:xlink="http://www.w3.org/1999/xlink">
    <g id="Page-1" stroke="none" stroke-width="1" fill="none" fill-rule="evenodd">
        <g id="addBloc" transform="translate(-590.000000, -693.000000)" fill="#848F99">
            <g id="content" transform="translate(322.000000, 81.000000)">
                <g id="widgets" transform="translate(261.000000, 602.000000)">
                    <g id="barchart">
                        <path d="M13.9428186,18.4268806 L13.9428186,24.0447921 L11.1657173,24.0447921 L11.1657173,18.4268806 L13.9428186,18.4268806 L13.9428186,18.4268806 Z M18.1084835,12.808969 L18.1084835,24.0447921 L15.3313823,24.0447921 L15.3313823,12.808969 L18.1084835,12.808969 L18.1084835,12.808969 Z M29.2169407,25.4492501 L29.2169407,26.8537346 L7,26.8537346 L7,10 L8.38856371,10 L8.38856371,25.4492766 L29.2169407,25.4492766 L29.2169407,25.4492501 Z M22.2741484,15.6179381 L22.2741484,24.0448186 L19.497021,24.0448186 L19.497021,15.6179381 L22.2741484,15.6179381 L22.2741484,15.6179381 Z M26.4398395,11.404511 L26.4398395,24.0448186 L23.6627383,24.0448186 L23.6627383,11.404511 L26.4398395,11.404511 L26.4398395,11.404511 Z" id="Shape"></path>
                    </g>
                </g>
            </g>
        </g>
    </g>
</svg>