<?xml version="1.0" encoding="UTF-8" standalone="no"?>
<svg width="23px" height="18px" viewBox="0 0 23 18" version="1.1" xmlns="http://www.w3.org/2000/svg" xmlns:xlink="http://www.w3.org/1999/xlink">
    <g id="Page-1" stroke="none" stroke-width="1" fill="none" fill-rule="evenodd">
        <g id="addBloc" transform="translate(-636.000000, -692.000000)" fill="#FFFFFF">
            <g id="content" transform="translate(322.000000, 81.000000)">
                <g id="widgets" transform="translate(261.000000, 602.000000)">
                    <g id="linechart" transform="translate(46.000000, 0.000000)">
                        <path d="M26.855625,13.3364928 L22.0920908,20.3157482 C22.1443334,20.4706658 22.1726572,20.6365315 22.1726572,20.8089406 C22.1726572,21.6614334 21.4801266,22.3561066 20.6276338,22.3561066 C19.777208,22.3561066 19.0825852,21.6614334 19.0825852,20.8089406 C19.0825852,20.5158189 19.16359,20.2365846 19.3125373,19.9964614 L17.2357108,17.4500551 C17.0502871,17.5270503 16.849752,17.5672751 16.6428729,17.5672751 C16.3050259,17.5672751 15.9749783,17.4544961 15.7068573,17.2513811 L12.7516498,20.6982393 C12.8110106,20.8623692 12.8433817,21.0393033 12.8433817,21.2236171 C12.8433817,22.076135 12.1508763,22.7686657 11.2983331,22.7686657 C10.4458403,22.7686657 9.75330966,22.076135 9.75330966,21.2236171 C9.75330966,20.3711243 10.4458403,19.6765015 11.2983331,19.6765015 C11.5785744,19.6765015 11.8415233,19.7515566 12.0682678,19.8826026 L15.1254689,16.3146134 C15.1071761,16.2186364 15.0977991,16.1201179 15.0977991,16.0200839 C15.0977991,15.1675911 15.7903297,14.4750352 16.6428477,14.4750352 C17.4953405,14.4750352 18.1878963,15.1675911 18.1878963,16.0200839 C18.1879264,16.2677115 18.1301463,16.5055529 18.0217514,16.7193029 L20.1565111,19.3363128 C20.3071223,19.2883283 20.4654956,19.263892 20.6276338,19.263892 C20.9096161,19.263892 21.1740968,19.3396627 21.4018018,19.4719311 L26.0952372,12.5981656 C25.9961759,12.3941867 25.9405896,12.165332 25.9405896,11.9238082 C25.9405896,11.0713154 26.6331454,10.3766422 27.4856382,10.3766422 C28.3381814,10.3766422 29.0306868,11.0713154 29.0306868,11.9238082 C29.030712,12.7763262 28.3381814,13.4709994 27.4856382,13.4709994 C27.2613264,13.4709994 27.0480877,13.422904 26.855625,13.3364928 Z M16.9955619,16.3399143 C17.0741028,16.2518623 17.1186254,16.1406267 17.1186254,16.0201091 C17.1186254,15.759093 16.9039142,15.5464992 16.6428729,15.5464992 C16.3797899,15.5464992 16.1671709,15.7590678 16.1671709,16.0201091 C16.1671709,16.1653252 16.2324312,16.3000806 16.3460885,16.3926903 C16.3464683,16.3929969 16.3468476,16.3933039 16.3472263,16.3936114 C16.4598741,16.4836335 16.7908756,16.5436649 16.9775935,16.3569219 C16.9834859,16.3510894 16.9894773,16.3454202 16.9955619,16.3399143 Z M7,26.212439 L7,26.9007854 L29.030712,26.9007854 L29.030712,25.5240927 L8.37664223,25.5240927 L8.37664223,9 L7,9 L7,26.212439 Z M11.2983331,20.7478898 C11.037317,20.7478898 10.8225806,20.9604836 10.8225806,21.2235919 C10.8225806,21.4846583 11.0372918,21.6993695 11.2983331,21.6993695 C11.5593491,21.6993695 11.7740855,21.4846583 11.7740855,21.2235919 C11.7740855,20.9604836 11.5593743,20.7478898 11.2983331,20.7478898 Z M20.6276338,20.3332133 C20.495021,20.3332133 20.3981767,20.3879624 20.3392432,20.4321751 C20.221326,20.5226674 20.1539735,20.6616323 20.1539735,20.8089658 C20.1539735,21.072074 20.3665422,21.2847183 20.6276086,21.2847183 C20.890742,21.2847183 21.1033107,21.0720992 21.1033107,20.8089658 C21.1033359,20.5479245 20.8907672,20.3332133 20.6276338,20.3332133 Z" id="Shape"></path>
                    </g>
                </g>
            </g>
        </g>
    </g>
</svg>