<?xml version="1.0" encoding="UTF-8" standalone="no"?>
<svg width="21px" height="21px" viewBox="0 0 21 21" version="1.1" xmlns="http://www.w3.org/2000/svg" xmlns:xlink="http://www.w3.org/1999/xlink">
    <g id="Page-1" stroke="none" stroke-width="1" fill="none" fill-rule="evenodd">
        <g id="addBloc" transform="translate(-683.000000, -691.000000)" fill="#848F99">
            <g id="content" transform="translate(322.000000, 81.000000)">
                <g id="widgets" transform="translate(261.000000, 602.000000)">
                    <g id="piechart" transform="translate(92.000000, 0.000000)">
                        <path d="M17.6878511,19.1737595 L17.6878511,8 L17.6878511,8 C23.1477179,8 28.6675948,12.7916933 28.6675948,18.70267 C28.6675948,20.0693909 28.388428,21.2677602 27.987267,22.2633845 L17.6878511,19.1737595 L17.6878511,19.1737595 L17.6878511,19.1737595 Z M16.3959584,20.2720407 L25.9084888,23.1245273 C24.4452477,26.3890686 21.1744271,28.6671904 17.3647293,28.6671904 C12.1925205,28.6671904 8,24.474218 8,19.3024374 C8,14.4760653 11.8937785,10.4075846 16.3959584,9.93751787 L16.3959584,20.2720407 L16.3959584,20.2720407 L16.3959584,20.2720407 Z" id="Shape"></path>
                    </g>
                </g>
            </g>
        </g>
    </g>
</svg>