<?xml version="1.0" encoding="UTF-8" standalone="no"?>
<svg width="15px" height="15px" viewBox="0 0 15 15" version="1.1" xmlns="http://www.w3.org/2000/svg" xmlns:xlink="http://www.w3.org/1999/xlink">
    <g id="Page-1" stroke="none" stroke-width="1" fill="none" fill-rule="evenodd">
        <g id="addBloc" transform="translate(-778.000000, -694.000000)" fill="#333333">
            <g id="content" transform="translate(322.000000, 81.000000)">
                <g id="widgets" transform="translate(261.000000, 602.000000)">
                    <g id="addmore" transform="translate(184.000000, 0.000000)">
                        <path d="M17.3459187,11 C17.9496059,11.0004488 18.5532582,10.9995678 19.1573609,11.0004488 C19.1577931,13.1153744 19.1573609,15.2298362 19.1573609,17.3447784 C21.2723231,17.3460733 23.3878188,17.3442964 25.5028308,17.3456428 L25.5028308,19.1565448 C23.3878188,19.1578729 21.2728217,19.1565448 19.1577931,19.1574091 C19.1564484,21.2723846 19.1582086,23.3872453 19.1568789,25.5022374 L17.3459021,25.5022374 C17.3445574,23.387262 17.3459021,21.2724012 17.3454533,19.1574091 C15.2304745,19.1561143 13.1154608,19.1578745 11.0004488,19.1565448 C11,18.5528825 11,17.9493034 11,17.3456428 C13.1154608,17.3442981 15.2304745,17.3460749 17.3454533,17.3447784 C17.3454699,15.2298362 17.3450377,13.114909 17.3459187,11 L17.3459187,11 Z" id="Shape"></path>
                    </g>
                </g>
            </g>
        </g>
    </g>
</svg>