<?xml version="1.0" encoding="UTF-8" standalone="no"?>
<svg width="22px" height="19px" viewBox="0 0 22 19" version="1.1" xmlns="http://www.w3.org/2000/svg" xmlns:xlink="http://www.w3.org/1999/xlink">
    <g id="Page-1" stroke="none" stroke-width="1" fill="none" fill-rule="evenodd">
        <g id="addBloc" transform="translate(-728.000000, -692.000000)" fill="#848F99">
            <g id="content" transform="translate(322.000000, 81.000000)">
                <g id="widgets" transform="translate(261.000000, 602.000000)">
                    <g id="table" transform="translate(138.000000, 0.000000)">
                        <path d="M17.7655315,9.00059088 C20.8472904,9.00059088 23.9290271,8.9998789 27.010786,9.00092463 C28.0737193,9.00141412 28.4382502,9.36078318 28.4383614,10.4168192 C28.4386952,15.7200718 28.4380055,21.0233466 28.4348238,26.3266214 C28.4342453,27.3957399 28.080839,27.7548865 27.0254037,27.7551313 C20.8081541,27.7572227 14.5909266,27.7569779 8.37367692,27.755376 C7.3896838,27.7551313 7.00394943,27.3793645 7.0031262,26.3938362 C6.9990546,21.0365848 6.99869861,15.679467 7.00361569,10.3222156 C7.00455016,9.37306474 7.39204223,9.00292705 8.35894796,9.00201482 C11.4945722,8.99845495 14.6300407,9.00072438 17.7655315,9.00059088 L17.7655315,9.00059088 L17.7655315,9.00059088 Z M13.7270792,22.7463691 L8.40226715,22.7463691 L8.40226715,26.3611521 L13.7270792,26.3611521 L13.7270792,22.7463691 L13.7270792,22.7463691 L13.7270792,22.7463691 Z M20.371024,26.3819774 L20.371024,22.7632118 L15.0766712,22.7632118 L15.0766712,26.3819774 L20.371024,26.3819774 L20.371024,26.3819774 L20.371024,26.3819774 Z M21.7111379,26.3530534 L27.0392428,26.3530534 L27.0392428,22.7533776 L21.7111379,22.7533776 L21.7111379,26.3530534 L21.7111379,26.3530534 L21.7111379,26.3530534 Z M8.41127808,17.8943971 L8.41127808,21.4767408 L13.7117495,21.4767408 L13.7117495,17.8943971 L8.41127808,17.8943971 L8.41127808,17.8943971 L8.41127808,17.8943971 Z M21.7064655,21.5237088 C23.443772,21.5237088 25.1204273,21.5276914 26.79686,21.5128067 C26.8872362,21.5120058 27.0529705,21.3536804 27.0544834,21.2666861 C27.0719268,20.1478851 27.0659418,19.0286391 27.0659418,17.9145326 L21.7064655,17.9145326 L21.7064655,21.5237088 L21.7064655,21.5237088 L21.7064655,21.5237088 Z M15.0514851,21.4826145 L20.3776988,21.4826145 L20.3776988,17.9110172 L15.0514851,17.9110172 L15.0514851,21.4826145 L15.0514851,21.4826145 L15.0514851,21.4826145 Z M13.7164218,16.6629706 L13.7164218,13.0601354 L8.36949408,13.0601354 C8.36949408,14.1820513 8.35859198,15.253773 8.38504627,16.324538 C8.38787192,16.4400114 8.60531334,16.6467954 8.72523655,16.6483306 C10.3706316,16.6700014 12.0166052,16.6629706 13.7164218,16.6629706 L13.7164218,16.6629706 L13.7164218,16.6629706 Z M15.0645008,16.6140001 L20.3647053,16.6140001 L20.3647053,13.0490108 L15.0645008,13.0490108 L15.0645008,16.6140001 L15.0645008,16.6140001 L15.0645008,16.6140001 Z M27.0282517,16.6291073 L27.0282517,13.0437378 L21.7180573,13.0437378 L21.7180573,16.6291073 L27.0282517,16.6291073 L27.0282517,16.6291073 L27.0282517,16.6291073 Z" id="Shape"></path>
                    </g>
                </g>
            </g>
        </g>
    </g>
</svg>