<?xml version="1.0" encoding="UTF-8" standalone="no"?>
<svg
   xmlns:sketch="http://www.bohemiancoding.com/sketch/ns"
   xmlns:dc="http://purl.org/dc/elements/1.1/"
   xmlns:cc="http://creativecommons.org/ns#"
   xmlns:rdf="http://www.w3.org/1999/02/22-rdf-syntax-ns#"
   xmlns:svg="http://www.w3.org/2000/svg"
   xmlns="http://www.w3.org/2000/svg"
   xmlns:sodipodi="http://sodipodi.sourceforge.net/DTD/sodipodi-0.dtd"
   xmlns:inkscape="http://www.inkscape.org/namespaces/inkscape"
   width="218px"
   height="197px"
   viewBox="0 0 218 197"
   version="1.1"
   id="svg2"
   inkscape:version="0.91 r13725"
   sodipodi:docname="pop.svg">
  <metadata
     id="metadata18">
    <rdf:RDF>
      <cc:Work
         rdf:about="">
        <dc:format>image/svg+xml</dc:format>
        <dc:type
           rdf:resource="http://purl.org/dc/dcmitype/StillImage" />
        <dc:title>pop</dc:title>
      </cc:Work>
    </rdf:RDF>
  </metadata>
  <sodipodi:namedview
     pagecolor="#ffffff"
     objecttolerance="10"
     gridtolerance="10"
     guidetolerance="10"
     inkscape:pageopacity="0"
     inkscape:pageshadow="2"
     inkscape:window-width="664"
     inkscape:window-height="480"
     id="namedview16"
     showgrid="false"
     inkscape:zoom="1.6941848"
     inkscape:cx="144.25764"
     inkscape:cy="154.76653"
     inkscape:window-x="229"
     inkscape:window-y="61"
     inkscape:window-maximized="0"
     inkscape:current-layer="svg2" />
  <!-- Generator: Sketch 3.3 (11970) - http://www.bohemiancoding.com/sketch -->
  <title
     id="title4">pop</title>
  <desc
     id="desc6">Created with Sketch.</desc>
  <defs
     id="defs8" />
  <g
     id="Page-1"
     sketch:type="MSPage">
    <g
       id="Home-Page"
       sketch:type="MSArtboardGroup"
       transform="translate(-90.000000, -1973.000000)">
      <g
         id="Consult"
         sketch:type="MSLayerGroup"
         transform="translate(-2.000000, 1800.000000)">
        <g
           id="Consult-Types"
           transform="translate(0.000000, 139.000000)"
           sketch:type="MSShapeGroup">
          <g
             id="Material-Repo"
             transform="translate(92.000000, 34.000000)">
            <path
               d="M11.1204669,118.118998 C18.3074935,129.145622 28.3401942,138.564837 41.1991446,146.1514 C40.3250468,149.601699 39.2372806,152.816518 37.9261338,156.031337 C36.8383676,159.020914 35.7506014,161.549768 34.6628352,163.6179 C33.7887374,165.46079 32.4775907,167.754164 30.7391072,170.057776 C28.9909115,172.576392 27.9031453,174.19404 27.0290475,175.105246 C26.1549497,176.262172 24.6301345,177.869581 22.6682705,179.937713 C20.7064065,182.231087 19.6186403,183.838496 18.967923,184.534699 C18.7445425,184.534699 18.5308741,184.995422 18.0938252,185.681386 C17.4431079,186.142109 17.2197273,186.602831 17.2197273,186.602831 C17.006059,186.828073 16.7826784,187.288796 16.3456295,187.97476 C15.9182928,188.435483 15.9182928,188.896205 15.9182928,189.131685 C15.9182928,189.356927 15.9182928,189.58217 15.6949122,190.278372 C15.4812439,190.964337 15.4812439,191.650301 15.6949122,191.885782 L15.6949122,192.111024 C15.9182928,193.493191 16.7826784,194.875359 17.8801568,195.786565 C18.967923,196.70801 20.0556892,197.168733 21.5805043,196.943491 C26.8153791,196.247288 31.3898245,195.336081 35.3135525,194.179156 C56.6803885,188.435483 75.2112626,178.094823 91.3432237,163.157177 C97.4424842,163.85338 103.328076,164.078622 109,164.078622 C128.832309,164.078622 146.926134,160.403081 163.718524,153.051998 C180.501203,145.926158 193.583534,135.81074 203.392854,123.176707 C213.202174,110.532435 218,96.9769569 218,82.0393112 C218,67.1016655 213.202174,53.5461871 203.392854,40.9019154 C193.583534,28.267882 180.501203,18.1524646 163.718524,11.026624 C146.926134,3.67554133 128.832309,0 109,0 C94.1694734,0 80.2227568,2.06813189 66.703377,6.42963777 C53.1937093,10.8013819 41.6361935,16.5450551 31.8268734,23.8961378 C22.2312216,31.2472205 14.3837655,39.9804705 8.72155395,50.0958879 C2.83596186,60.201067 0,71.0024489 0,82.0393112 C0,94.908825 3.7100597,106.856894 11.1204669,118.118998"
               id="pop" />
          </g>
        </g>
      </g>
    </g>
  </g>
</svg>
